# xmcd CD database file
#
# Track frame offsets:
#	187
#	19767
#	40255
#	59127
#	79580
#	97965
#	115095
#	133632
#	154982
#	174742
#	191407
#
# Disc length: 2842 seconds
#
# Revision: 2
# Processed by: cddbd v1.5PL3 Copyright (c) Steve Scherf et al.
# Submitted via: CDex 1.51
#
DISCID=8e0b180b
DTITLE=U.D.O. - Animal House
DYEAR=1987
DGENRE=Metal
TTITLE0=Animal House
TTITLE1=Go Back To Hell
TTITLE2=They Want War
TTITLE3=Black Widow
TTITLE4=In The Darkness
TTITLE5=Lay Down The Law
TTITLE6=We Want It Loud
TTITLE7=Hot Tonight
TTITLE8=Warrior
TTITLE9=Coming Home
TTITLE10=Run For Cover
EXTD=YEAR: 1987
EXTT0=
EXTT1=
EXTT2=
EXTT3=
EXTT4=
EXTT5=
EXTT6=
EXTT7=
EXTT8=
EXTT9=
EXTT10=
PLAYORDER=
